<?xml version="1.0" ?><svg enable-background="new 0 0 64 64" id="Layer_1_1_" version="1.1" viewBox="0 0 64 64" xml:space="preserve" xmlns="http://www.w3.org/2000/svg" xmlns:xlink="http://www.w3.org/1999/xlink"><g><g><g><path d="M36,54h-7c-9.5,0-17-7-17-16V19h40v4h1c6.2,0,10,3.8,10,10c0,5.7-4.3,10-10,10h-2.2     C48.8,49.7,43.1,54,36,54z M14,21v17c0,7.9,6.6,14,15,14h7c6.5,0,11.5-3.9,13-10.2l0.2-0.8H53c4.6,0,8-3.4,8-8c0-5.1-2.9-8-8-8     h-3v-4H14z M53,39h-3V27h3c3.5,0,6,2.5,6,6C59,36.5,56.5,39,53,39z M52,37h1c2.4,0,4-1.6,4-4s-1.6-4-4-4h-1V37z" fill="#343433"/></g><g><path d="M35,49h-6c-7.9,0-12-6.5-12-13v-5h30v6C47,42,43.3,49,35,49z M19,33v3c0,5.3,3.1,11,10,11h6     c7.6,0,10-6.7,10-10v-4H19z" fill="#343433"/></g><g><path d="M58,58H6c-2.5,0-5-2.5-5-5v-1l62,0v1C63,55.6,60.6,58,58,58z M3.2,54c0.5,1.1,1.7,2,2.8,2h52     c1.1,0,2.3-0.9,2.8-2L3.2,54z" fill="#343433"/></g></g><g><rect fill="#343433" height="2" width="2" x="17" y="27"/></g><g><rect fill="#343433" height="2" width="2" x="17" y="23"/></g><g><path d="M42,17c-2.2,0-4-1.8-4-4c0-1.1-0.9-2-2-2s-2,0.9-2,2h-2c0-2.2,1.8-4,4-4s4,1.8,4,4c0,1.1,0.9,2,2,2    s2-0.9,2-2h2C46,15.2,44.2,17,42,17z" fill="#333333"/></g><g><path d="M54,18c-2.8,0-5-2.2-5-5c0-1.7-1.3-3-3-3s-3,1.3-3,3h-2c0-2.8,2.2-5,5-5s5,2.2,5,5c0,1.7,1.3,3,3,3    s3-1.3,3-3h2C59,15.8,56.8,18,54,18z" fill="#333333"/></g></g></svg>